<?xml version="1.0" encoding="UTF-8"?>
<svg xmlns="http://www.w3.org/2000/svg" xmlns:xlink="http://www.w3.org/1999/xlink" width="150pt" height="150pt" viewBox="0 0 150 150" version="1.1">
<g id="surface1">
<path style=" stroke:none;fill-rule:nonzero;fill:rgb(0%,0%,0%);fill-opacity:1;" d="M 74.402344 14.191406 C 74.253906 14.492188 74.253906 14.789062 74.253906 15.089844 L 74.253906 59.3125 C 69.921875 52.140625 63.347656 43.027344 57.519531 43.027344 C 52.140625 43.027344 37.949219 54.679688 33.765625 58.265625 C 33.464844 58.566406 33.167969 58.863281 33.167969 59.164062 C 33.019531 59.761719 31.074219 64.988281 32.867188 68.875 C 33.316406 69.921875 33.765625 70.667969 34.214844 71.5625 C 31.523438 72.3125 29.582031 75.449219 28.835938 77.539062 C 28.835938 77.6875 28.683594 77.839844 28.683594 77.839844 C 28.238281 80.078125 24.054688 100.25 26.445312 107.867188 C 28.984375 116.085938 38.546875 126.84375 49.75 133.714844 C 68.277344 145.21875 90.984375 142.976562 104.878906 137.597656 C 114.589844 133.714844 120.417969 125.050781 121.761719 118.175781 C 123.109375 111.15625 123.554688 99.351562 123.554688 86.804688 C 123.554688 62.75 121.914062 35.707031 121.761719 34.0625 C 121.761719 33.617188 121.613281 33.316406 121.464844 33.019531 C 121.316406 32.867188 118.476562 28.683594 112.648438 28.683594 C 110.855469 28.683594 109.363281 29.132812 108.019531 29.730469 L 108.019531 25.398438 C 108.019531 25.097656 107.867188 24.652344 107.71875 24.351562 C 107.570312 24.054688 104.582031 18.375 98.605469 18.375 C 96.960938 18.375 95.46875 18.972656 94.273438 19.722656 L 94.273438 14.789062 C 94.273438 14.492188 94.273438 14.191406 94.125 13.894531 C 93.972656 13.59375 91.433594 7.320312 84.414062 7.320312 C 77.390625 7.320312 74.550781 13.894531 74.402344 14.191406 Z M 44.371094 75.296875 C 45.566406 74.703125 46.761719 73.804688 47.957031 72.910156 C 49.902344 71.414062 52.738281 69.472656 54.082031 69.921875 C 54.382812 70.070312 57.222656 71.265625 58.417969 85.160156 C 58.863281 90.238281 55.578125 100.546875 52.589844 101.445312 C 51.246094 101.742188 46.613281 98.308594 45.566406 95.917969 C 45.269531 95.320312 45.269531 94.722656 45.269531 93.824219 C 45.269531 92.03125 45.71875 89.640625 46.164062 87.550781 C 46.914062 84.113281 47.511719 80.976562 46.761719 78.4375 C 46.316406 77.242188 45.417969 76.195312 44.371094 75.296875 Z M 89.789062 15.238281 L 89.789062 68.875 C 89.789062 70.070312 90.835938 71.117188 92.03125 71.117188 C 93.226562 71.117188 94.273438 70.070312 94.273438 68.875 L 94.273438 25.847656 C 95.019531 24.652344 96.8125 22.710938 98.605469 22.710938 C 101.144531 22.710938 102.9375 24.949219 103.535156 25.847656 L 103.535156 68.875 C 103.535156 70.070312 104.582031 71.117188 105.777344 71.117188 C 106.972656 71.117188 108.019531 70.070312 108.019531 68.875 L 108.019531 34.960938 C 108.765625 34.214844 110.257812 33.019531 112.648438 33.019531 C 115.1875 33.019531 116.832031 34.363281 117.429688 34.960938 C 117.878906 41.980469 121.164062 98.308594 117.429688 117.132812 C 116.535156 121.464844 112.648438 129.679688 103.238281 133.265625 C 89.34375 138.945312 68.128906 139.988281 52.140625 129.980469 C 41.980469 123.707031 32.867188 113.84375 30.777344 106.671875 C 30.476562 105.476562 30.328125 103.835938 30.328125 101.742188 C 30.328125 94.570312 32.269531 83.816406 33.167969 79.035156 C 33.765625 77.539062 35.109375 75.746094 35.707031 76.046875 C 39.292969 77.089844 42.132812 78.882812 42.429688 79.78125 C 42.878906 81.125 42.28125 84.113281 41.683594 86.652344 C 40.785156 90.6875 40.039062 94.722656 41.382812 97.859375 C 42.730469 100.847656 49.304688 107.121094 53.785156 105.777344 C 60.359375 103.835938 63.347656 90.089844 62.898438 84.710938 C 61.851562 72.910156 59.460938 66.78125 55.277344 65.585938 C 51.691406 64.542969 48.257812 67.082031 45.269531 69.324219 C 43.925781 70.367188 42.28125 71.414062 41.382812 71.714844 C 40.488281 71.863281 38.394531 70.964844 36.902344 67.378906 C 36.15625 65.738281 36.753906 62.898438 37.203125 61.40625 C 45.121094 54.679688 54.980469 47.660156 57.519531 47.660156 C 61.703125 47.660156 70.21875 60.507812 74.550781 69.023438 C 75 69.921875 76.046875 70.367188 77.089844 70.21875 C 78.136719 69.921875 78.882812 69.023438 78.882812 67.976562 L 78.882812 15.539062 C 79.480469 14.492188 81.125 11.804688 84.414062 11.804688 C 87.699219 11.804688 89.191406 14.34375 89.789062 15.238281 Z M 89.789062 15.238281 "/>
</g>
</svg>
