<?xml version="1.0" encoding="utf-8"?>
<!-- Generator: Adobe Illustrator 21.1.0, SVG Export Plug-In . SVG Version: 6.00 Build 0)  -->
<svg version="1.1" id="Layer_1" xmlns="http://www.w3.org/2000/svg" xmlns:xlink="http://www.w3.org/1999/xlink" x="0px" y="0px"
	 viewBox="0 0 100.4 100.4" style="enable-background:new 0 0 100.4 100.4;" xml:space="preserve">
<path d="M49.8,9.5c-0.1,0.2-0.1,0.4-0.1,0.6v29.6c-2.9-4.8-7.3-10.9-11.2-10.9c-3.6,0-13.1,7.8-15.9,10.2c-0.2,0.2-0.4,0.4-0.4,0.6
	c-0.1,0.4-1.4,3.9-0.2,6.5c0.3,0.7,0.6,1.2,0.9,1.8c-1.8,0.5-3.1,2.6-3.6,4c0,0.1-0.1,0.2-0.1,0.2c-0.3,1.5-3.1,15-1.5,20.1
	c1.7,5.5,8.1,12.7,15.6,17.3c12.4,7.7,27.6,6.2,36.9,2.6c6.5-2.6,10.4-8.4,11.3-13c0.9-4.7,1.2-12.6,1.2-21
	c0-16.1-1.1-34.2-1.2-35.3c0-0.3-0.1-0.5-0.2-0.7c-0.1-0.1-2-2.9-5.9-2.9c-1.2,0-2.2,0.3-3.1,0.7v-2.9c0-0.2-0.1-0.5-0.2-0.7
	c-0.1-0.2-2.1-4-6.1-4c-1.1,0-2.1,0.4-2.9,0.9V9.9c0-0.2,0-0.4-0.1-0.6c-0.1-0.2-1.8-4.4-6.5-4.4S49.9,9.3,49.8,9.5z M29.7,50.4
	c0.8-0.4,1.6-1,2.4-1.6c1.3-1,3.2-2.3,4.1-2c0.2,0.1,2.1,0.9,2.9,10.2c0.3,3.4-1.9,10.3-3.9,10.9c-0.9,0.2-4-2.1-4.7-3.7
	c-0.2-0.4-0.2-0.8-0.2-1.4c0-1.2,0.3-2.8,0.6-4.2c0.5-2.3,0.9-4.4,0.4-6.1C31,51.7,30.4,51,29.7,50.4z M60.1,10.2v6.7c0,0,0,0,0,0
	v29.2c0,0.8,0.7,1.5,1.5,1.5s1.5-0.7,1.5-1.5V17.3c0.5-0.8,1.7-2.1,2.9-2.1c1.7,0,2.9,1.5,3.3,2.1v5.6c0,0,0,0,0,0v23.2
	c0,0.8,0.7,1.5,1.5,1.5s1.5-0.7,1.5-1.5V23.4c0.5-0.5,1.5-1.3,3.1-1.3c1.7,0,2.8,0.9,3.2,1.3c0.3,4.7,2.5,42.4,0,55
	c-0.6,2.9-3.2,8.4-9.5,10.8c0,0,0,0,0,0C59.8,93,45.6,93.7,34.9,87C28.1,82.8,22,76.2,20.6,71.4c-0.2-0.8-0.3-1.9-0.3-3.3
	c0-4.8,1.3-12,1.9-15.2c0.4-1,1.3-2.2,1.7-2c2.4,0.7,4.3,1.9,4.5,2.5c0.3,0.9-0.1,2.9-0.5,4.6c-0.6,2.7-1.1,5.4-0.2,7.5
	c0.9,2,5.3,6.2,8.3,5.3c4.4-1.3,6.4-10.5,6.1-14.1c-0.7-7.9-2.3-12-5.1-12.8c-2.4-0.7-4.7,1-6.7,2.5c-0.9,0.7-2,1.4-2.6,1.6
	c-0.6,0.1-2-0.5-3-2.9c-0.5-1.1-0.1-3,0.2-4c5.3-4.5,11.9-9.2,13.6-9.2c2.8,0,8.5,8.6,11.4,14.3c0.3,0.6,1,0.9,1.7,0.8
	c0.7-0.2,1.2-0.8,1.2-1.5V10.4c0.4-0.7,1.5-2.5,3.7-2.5C58.7,7.9,59.7,9.6,60.1,10.2z"/>
</svg>
